<svg xmlns="http://www.w3.org/2000/svg" xmlns:xlink="http://www.w3.org/1999/xlink" viewBox="0 0 850 850" width="850" height="850" preserveAspectRatio="xMidYMid meet" style="width: 100%; height: 100%; transform: translate3d(0px, 0px, 0px); content-visibility: visible;"><defs><clipPath id="__lottie_element_2"><rect width="850" height="850" x="0" y="0"/></clipPath><clipPath id="__lottie_element_4"><path d="M0,0 L850,0 L850,850 L0,850z"/></clipPath><clipPath id="__lottie_element_8"><path d="M0,0 L850,0 L850,850 L0,850z"/></clipPath><clipPath id="__lottie_element_12"><path d="M0,0 L850,0 L850,850 L0,850z"/></clipPath><clipPath id="__lottie_element_16"><path d="M0,0 L850,0 L850,850 L0,850z"/></clipPath><clipPath id="__lottie_element_23"><path fill="#ffffff" clip-rule="nonzero" d=" M-35.77680969238281,-248.1947479248047 C-114.32380676269531,-248.1947479248047 -177.99880981445312,-185.0177459716797 -177.99880981445312,-107.08374786376953 C-177.99880981445312,-29.149749755859375 -114.32380676269531,34.02798843383789 -35.77680969238281,34.02798843383789 C42.77019119262695,34.02798843383789 106.44593048095703,-29.149749755859375 106.44593048095703,-107.08374786376953 C106.44593048095703,-185.0177459716797 42.77019119262695,-248.1947479248047 -35.77680969238281,-248.1947479248047" fill-opacity="1"/></clipPath><clipPath id="__lottie_element_26"><path fill="#ffffff" clip-rule="nonzero" d=" M-146,-338 C-233.26100158691406,-338 -304,-284.27398681640625 -304,-218 C-304,-151.7259979248047 -233.26100158691406,-98 -146,-98 C-58.73899841308594,-98 12,-151.7259979248047 12,-218 C12,-284.27398681640625 -58.73899841308594,-338 -146,-338" fill-opacity="1"/></clipPath><clipPath id="__lottie_element_29"><path fill="#ffffff" clip-rule="nonzero" d=" M-146,-338 C-233.26100158691406,-338 -304,-284.27398681640625 -304,-218 C-304,-151.7259979248047 -233.26100158691406,-98 -146,-98 C-58.73899841308594,-98 12,-151.7259979248047 12,-218 C12,-284.27398681640625 -58.73899841308594,-338 -146,-338" fill-opacity="1"/></clipPath></defs><g clip-path="url(#__lottie_element_2)"><g clip-path="url(#__lottie_element_4)" transform="matrix(1,0,0,1,0,0)" opacity="1" style="display: block;"><g transform="matrix(-0.49143752455711365,0.09213670343160629,-0.09213670343160629,-0.49143752455711365,857.3397827148438,574.5029907226562)" opacity="1" style="display: block;"><g opacity="1" transform="matrix(0,1.5243500471115112,-1.5243500471115112,0,279.25,-258)"><path fill="rgb(255,255,255)" fill-opacity="1" d=" M22,-1.625 C22,-1.625 22,1.625 22,1.625 C22,1.625 -22,1.625 -22,1.625 C-22,1.625 -22,-1.625 -22,-1.625 C-22,-1.625 22,-1.625 22,-1.625z"/></g></g><g transform="matrix(-0.49143752455711365,0.09213670343160629,-0.09213670343160629,-0.49143752455711365,857.3397827148438,574.5029907226562)" opacity="1" style="display: block;"><g opacity="1" transform="matrix(1.8207900524139404,0,0,1.4366300106048584,279.5,-259.5)"><path fill="rgb(255,255,255)" fill-opacity="1" d=" M22,-1.625 C22,-1.625 22,1.625 22,1.625 C22,1.625 -22,1.625 -22,1.625 C-22,1.625 -22,-1.625 -22,-1.625 C-22,-1.625 22,-1.625 22,-1.625z"/></g></g></g><g clip-path="url(#__lottie_element_8)" transform="matrix(1,0,0,-1,0,850)" opacity="1" style="display: block;"><g transform="matrix(-0.49143752455711365,0.09213670343160629,-0.09213670343160629,-0.49143752455711365,857.3397827148438,574.5029907226562)" opacity="1" style="display: block;"><g opacity="1" transform="matrix(0,1.5243500471115112,-1.5243500471115112,0,279.25,-258)"><path fill="rgb(255,255,255)" fill-opacity="1" d=" M22,-1.625 C22,-1.625 22,1.625 22,1.625 C22,1.625 -22,1.625 -22,1.625 C-22,1.625 -22,-1.625 -22,-1.625 C-22,-1.625 22,-1.625 22,-1.625z"/></g></g><g transform="matrix(-0.49143752455711365,0.09213670343160629,-0.09213670343160629,-0.49143752455711365,857.3397827148438,574.5029907226562)" opacity="1" style="display: block;"><g opacity="1" transform="matrix(1.8207900524139404,0,0,1.4366300106048584,279.5,-259.5)"><path fill="rgb(255,255,255)" fill-opacity="1" d=" M22,-1.625 C22,-1.625 22,1.625 22,1.625 C22,1.625 -22,1.625 -22,1.625 C-22,1.625 -22,-1.625 -22,-1.625 C-22,-1.625 22,-1.625 22,-1.625z"/></g></g></g><g clip-path="url(#__lottie_element_12)" transform="matrix(-1,0,0,-1,850,850)" opacity="1" style="display: block;"><g transform="matrix(-0.49143752455711365,0.09213670343160629,-0.09213670343160629,-0.49143752455711365,857.3397827148438,574.5029907226562)" opacity="1" style="display: block;"><g opacity="1" transform="matrix(0,1.5243500471115112,-1.5243500471115112,0,279.25,-258)"><path fill="rgb(255,255,255)" fill-opacity="1" d=" M22,-1.625 C22,-1.625 22,1.625 22,1.625 C22,1.625 -22,1.625 -22,1.625 C-22,1.625 -22,-1.625 -22,-1.625 C-22,-1.625 22,-1.625 22,-1.625z"/></g></g><g transform="matrix(-0.49143752455711365,0.09213670343160629,-0.09213670343160629,-0.49143752455711365,857.3397827148438,574.5029907226562)" opacity="1" style="display: block;"><g opacity="1" transform="matrix(1.8207900524139404,0,0,1.4366300106048584,279.5,-259.5)"><path fill="rgb(255,255,255)" fill-opacity="1" d=" M22,-1.625 C22,-1.625 22,1.625 22,1.625 C22,1.625 -22,1.625 -22,1.625 C-22,1.625 -22,-1.625 -22,-1.625 C-22,-1.625 22,-1.625 22,-1.625z"/></g></g></g><g clip-path="url(#__lottie_element_16)" transform="matrix(-1,0,0,1,850,0)" opacity="1" style="display: block;"><g transform="matrix(-0.49143752455711365,0.09213670343160629,-0.09213670343160629,-0.49143752455711365,857.3397827148438,574.5029907226562)" opacity="1" style="display: block;"><g opacity="1" transform="matrix(0,1.5243500471115112,-1.5243500471115112,0,279.25,-258)"><path fill="rgb(255,255,255)" fill-opacity="1" d=" M22,-1.625 C22,-1.625 22,1.625 22,1.625 C22,1.625 -22,1.625 -22,1.625 C-22,1.625 -22,-1.625 -22,-1.625 C-22,-1.625 22,-1.625 22,-1.625z"/></g></g><g transform="matrix(-0.49143752455711365,0.09213670343160629,-0.09213670343160629,-0.49143752455711365,857.3397827148438,574.5029907226562)" opacity="1" style="display: block;"><g opacity="1" transform="matrix(1.8207900524139404,0,0,1.4366300106048584,279.5,-259.5)"><path fill="rgb(255,255,255)" fill-opacity="1" d=" M22,-1.625 C22,-1.625 22,1.625 22,1.625 C22,1.625 -22,1.625 -22,1.625 C-22,1.625 -22,-1.625 -22,-1.625 C-22,-1.625 22,-1.625 22,-1.625z"/></g></g></g><g transform="matrix(-0.8999282717704773,0.011359738186001778,-0.011359738186001778,-0.8999282717704773,424.25,425)" opacity="1" style="display: block;"><g opacity="1" transform="matrix(1.2128499746322632,0,0,1.2128499746322632,-1.1109999418258667,-280)"><path stroke-linecap="butt" stroke-linejoin="miter" fill-opacity="0" stroke-miterlimit="4" stroke="rgb(0,117,191)" stroke-opacity="1" stroke-width="7" d=" M0,-22.222000122070312 C12.264322280883789,-22.222000122070312 22.222000122070312,-12.264322280883789 22.222000122070312,0 C22.222000122070312,12.264322280883789 12.264322280883789,22.222000122070312 0,22.222000122070312 C-12.264322280883789,22.222000122070312 -22.222000122070312,12.264322280883789 -22.222000122070312,0 C-22.222000122070312,-12.264322280883789 -12.264322280883789,-22.222000122070312 0,-22.222000122070312z"/></g><g opacity="1" transform="matrix(1.2128499746322632,0,0,1.2128499746322632,-0.5559999942779541,276.1109924316406)"><path stroke-linecap="butt" stroke-linejoin="miter" fill-opacity="0" stroke-miterlimit="4" stroke="rgb(0,117,191)" stroke-opacity="1" stroke-width="7" d=" M0,-22.222000122070312 C12.264322280883789,-22.222000122070312 22.222000122070312,-12.264322280883789 22.222000122070312,0 C22.222000122070312,12.264322280883789 12.264322280883789,22.222000122070312 0,22.222000122070312 C-12.264322280883789,22.222000122070312 -22.222000122070312,12.264322280883789 -22.222000122070312,0 C-22.222000122070312,-12.264322280883789 -12.264322280883789,-22.222000122070312 0,-22.222000122070312z"/></g><g opacity="1" transform="matrix(0.8425899744033813,0,0,1,-2.2219998836517334,1.1109999418258667)"><path fill="rgb(0,116,191)" fill-opacity="1" d=" M6.666500091552734,-250 C6.666500091552734,-250 6.666500091552734,250 6.666500091552734,250 C6.666500091552734,250 -6.666500091552734,250 -6.666500091552734,250 C-6.666500091552734,250 -6.666500091552734,-250 -6.666500091552734,-250 C-6.666500091552734,-250 6.666500091552734,-250 6.666500091552734,-250z"/></g></g><g clip-path="url(#__lottie_element_23)" transform="matrix(0.8999999761581421,0,0,0.8999999761581421,425,425)" opacity="1" style="display: block;"><g opacity="1" transform="matrix(1,0,0,1,0,0)"><path stroke-linecap="butt" stroke-linejoin="miter" fill-opacity="0" stroke-miterlimit="4" stroke="rgb(0,117,191)" stroke-opacity="1" stroke-width="5" d=" M0,-197.7779998779297 C109.15367889404297,-197.7779998779297 197.7779998779297,-109.15367889404297 197.7779998779297,0 C197.7779998779297,109.15367889404297 109.15367889404297,197.7779998779297 0,197.7779998779297 C-109.15367889404297,197.7779998779297 -197.7779998779297,109.15367889404297 -197.7779998779297,0 C-197.7779998779297,-109.15367889404297 -109.15367889404297,-197.7779998779297 0,-197.7779998779297z"/></g></g><g clip-path="url(#__lottie_element_26)" transform="matrix(-0.9788532853126526,-0.2045636922121048,0.2045636922121048,-0.9788532853126526,425,425)" opacity="1" style="display: block;"><g opacity="1" transform="matrix(1,0,0,1,0,0)"><path stroke-linecap="butt" stroke-linejoin="miter" fill-opacity="0" stroke-miterlimit="4" stroke-dasharray=" 10 25" stroke-dashoffset="0" stroke="rgb(127,62,182)" stroke-opacity="1" stroke-width="30" d=" M0,-250 C137.97500610351562,-250 250,-137.97500610351562 250,0 C250,137.97500610351562 137.97500610351562,250 0,250 C-137.97500610351562,250 -250,137.97500610351562 -250,0 C-250,-137.97500610351562 -137.97500610351562,-250 0,-250z"/></g></g><g clip-path="url(#__lottie_element_29)" transform="matrix(0.9788532853126526,0.2045636922121048,-0.2045636922121048,0.9788532853126526,425,425)" opacity="1" style="display: block;"><g opacity="1" transform="matrix(1,0,0,1,0,0)"><path stroke-linecap="butt" stroke-linejoin="miter" fill-opacity="0" stroke-miterlimit="4" stroke-dasharray=" 10 25" stroke-dashoffset="0" stroke="rgb(127,63,182)" stroke-opacity="1" stroke-width="30" d=" M0,-250 C137.97500610351562,-250 250,-137.97500610351562 250,0 C250,137.97500610351562 137.97500610351562,250 0,250 C-137.97500610351562,250 -250,137.97500610351562 -250,0 C-250,-137.97500610351562 -137.97500610351562,-250 0,-250z"/></g></g><g transform="matrix(-0.6391221880912781,-0.5959910750389099,0.5959910750389099,-0.6391221880912781,425,425)" opacity="1" style="display: block;"><g opacity="1" transform="matrix(1,0,0,1,0.6809999942779541,1.1080000400543213)"><path stroke-linecap="butt" stroke-linejoin="miter" fill-opacity="0" stroke-miterlimit="4" stroke="rgb(236,235,235)" stroke-opacity="1" stroke-width="4" d=" M0,-113.62449645996094 C62.70935821533203,-113.62449645996094 113.62449645996094,-62.70935821533203 113.62449645996094,0 C113.62449645996094,62.70935821533203 62.70935821533203,113.62449645996094 0,113.62449645996094 C-62.70935821533203,113.62449645996094 -113.62449645996094,62.70935821533203 -113.62449645996094,0 C-113.62449645996094,-62.70935821533203 -62.70935821533203,-113.62449645996094 0,-113.62449645996094z"/></g></g><g transform="matrix(0.8999999761581421,0,0,0.8999999761581421,425,425)" opacity="0.3" style="display: block;"><g opacity="1" transform="matrix(1,0,0,1,0,-2.2219998836517334)"><path stroke-linecap="butt" stroke-linejoin="miter" fill-opacity="0" stroke-miterlimit="4" stroke="rgb(127,63,182)" stroke-opacity="1" stroke-width="30" d=" M0,-200 C110.37999725341797,-200 200,-110.37999725341797 200,0 C200,110.37999725341797 110.37999725341797,200 0,200 C-110.37999725341797,200 -200,110.37999725341797 -200,0 C-200,-110.37999725341797 -110.37999725341797,-200 0,-200z"/></g></g><g transform="matrix(0.5548901557922363,-0.7085879445075989,0.7085879445075989,0.5548901557922363,425,425)" opacity="1" style="display: block;"><g opacity="1" transform="matrix(1,0,0,1,-0.7630000114440918,-0.06300000101327896)"><path stroke-linecap="butt" stroke-linejoin="miter" fill-opacity="0" stroke-miterlimit="4" stroke="rgb(0,117,191)" stroke-opacity="1" stroke-width="40" d=" M0,-130.36399841308594 C71.94789123535156,-130.36399841308594 130.36399841308594,-71.94789123535156 130.36399841308594,0 C130.36399841308594,71.94789123535156 71.94789123535156,130.36399841308594 0,130.36399841308594 C-71.94789123535156,130.36399841308594 -130.36399841308594,71.94789123535156 -130.36399841308594,0 C-130.36399841308594,-71.94789123535156 -71.94789123535156,-130.36399841308594 0,-130.36399841308594z"/></g></g><g transform="matrix(0.0034021821338683367,0.8999935388565063,0.8999935388565063,-0.0034021821338683367,425,425)" opacity="1" style="display: block;"><g opacity="1" transform="matrix(1,0,0,1,-1.159999966621399,0.05000000074505806)"><path stroke-linecap="butt" stroke-linejoin="miter" fill-opacity="0" stroke-miterlimit="4" stroke="rgb(0,117,191)" stroke-opacity="1" stroke-width="5" d=" M0,-279.1264953613281 C154.04991149902344,-279.1264953613281 279.1264953613281,-154.04991149902344 279.1264953613281,0 C279.1264953613281,154.04991149902344 154.04991149902344,279.1264953613281 0,279.1264953613281 C-154.04991149902344,279.1264953613281 -279.1264953613281,154.04991149902344 -279.1264953613281,0 C-279.1264953613281,-154.04991149902344 -154.04991149902344,-279.1264953613281 0,-279.1264953613281z"/></g></g><g transform="matrix(-0.6209897994995117,0.718937873840332,-0.718937873840332,-0.6209897994995117,425,425)" opacity="1" style="display: block;"><g opacity="1" transform="matrix(1,0,0,1,-0.08399999886751175,-1.246999979019165)"><path stroke-linecap="butt" stroke-linejoin="miter" fill-opacity="0" stroke-miterlimit="4" stroke-dasharray=" 4 70" stroke-dashoffset="0" stroke="rgb(127,63,182)" stroke-opacity="1" stroke-width="50" d=" M0,-324.781494140625 C179.2469024658203,-324.781494140625 324.781494140625,-179.2469024658203 324.781494140625,0 C324.781494140625,179.2469024658203 179.2469024658203,324.781494140625 0,324.781494140625 C-179.2469024658203,324.781494140625 -324.781494140625,179.2469024658203 -324.781494140625,0 C-324.781494140625,-179.2469024658203 -179.2469024658203,-324.781494140625 0,-324.781494140625z"/></g></g></g></svg>